<svg xmlns="http://www.w3.org/2000/svg" xmlns:xlink="http://www.w3.org/1999/xlink" viewBox="-200 -50 490 530"><defs><style>.cls-1{fill:url(#linear-gradient);}</style><linearGradient id="linear-gradient" x1="122.5" y1="284" x2="122.5" gradientUnits="userSpaceOnUse"><stop offset="0" stop-color="#471f5a"/><stop offset="0.24" stop-color="#4b215d"/><stop offset="0.46" stop-color="#562867"/><stop offset="0.66" stop-color="#683476"/><stop offset="0.86" stop-color="#82448d"/><stop offset="1" stop-color="#9852a0"/></linearGradient></defs><g id="Layer_2" data-name="Layer 2"><g id="Layer_1-2" data-name="Layer 1"><path class="cls-1" d="M238.92,176c1.9-.55,3.92-1.2,6.08-2-.5-6-10.76-35.61-15.56-45.36a97.9,97.9,0,0,1-5.73,17.3c2.35-5.71,3.57-16,4.23-22.13a14.46,14.46,0,0,0-3.57-9.42c-4.29-4.83-5.06-29.25-12.2-34.69-1.33,8.69-4.82,21.55-7.37,29.54,2.33-12.92,5-26,5.12-32.65a8,8,0,0,0-1.95-2c1.09,2.27-.24,5-.94,7.58.29-2.2-1.32-7.77-2.35-7.48s.44,2.94-.29,5.72c.14-2.49-2.06-5-4-7.48-.88,0-2.2,1.32-2.2,1.32s.74-2.23,1.43-4.19c2.3-8.88-2.4-21.31-3.4-25.57-1.29-5.42-10.85-14.41-13-14.84s-12.14,3.47-15.84,9.85c-3.53,6.07-4.09,11.74-3.09,12.88s.33-1,2.27-1.61c1.79-.55-6.48,12.68-5.4,21.11a74.36,74.36,0,0,0,15.27,16.31C171,87,164.61,83.62,164,83c1.6,5.13,5.77,26.46,36.23,24.22-8.17,1.92-30.82,2.07-37.51-14,1.76,4.22,4.86,21.31,16.76,27.37-15.07-3.68-21-25.39-21.89-35.39-.8,8,3.2,27.58,9.14,38.33-8.61-15.35-14.16-36.5-11-50a13,13,0,0,0-1.66,1c-2.05,4.58-2.65,19.7,3.51,34-6.62-13.59-8-23.35-6.88-31.47-4.56,3-7.17,10.57-8.68,15.1-.95,2.87-2.06,5.42-3.09,8.23-.33.92-.42,4.1-1.08,6a76,76,0,0,1,3.57,14.54c-1.2-5.49-4-11.49-5.32-13.07a4.79,4.79,0,0,0-1-.36c.94,5.55,1.32,19.91-.5,28.89-.12.66-.13.63,0,0,1.65-9,0-27.09-1-29.28-.25-.11-.52-.18-.81-.32a5.8,5.8,0,0,1-.92-.56c2.54,4.39,1.35,19.94-1,30.63a33.36,33.36,0,0,1-1.79,6.39,51.26,51.26,0,0,0,1.79-6.39c1.92-10.07,1.4-23.33.88-24.19-.64-1.07-.43,4.6-1.28,9.62.1-3.7,0-16.07-2.88-18.72-1.24-.44-2.33-.32-2.33,1.45,2.46,5.69,4,16.63,2.52,24.13.32-13.29-2.37-23.29-4.67-25.26a1.31,1.31,0,0,0-1,0c-.93.37-1.35,1.76-1.57,3.23a130.47,130.47,0,0,1-17.28-2.46l-4.07-4a1.63,1.63,0,0,0-1.41-2.74L96.46,98a1.61,1.61,0,0,0-1,.55c-3.11-31.09-5.1-60.4-8.1-85.87l1.09-.11c1.81-.18,3.17-1.45,3-2.84l-.41-4.16c-.14-1.39-1.73-2.37-3.54-2.18l-1.44.15c-.1-.66-.19-1.34-.28-2C85.79.2,84.46.16,84.22.1c-2.83-.61-2.83,1.68-2.64,3.2,0,.18,0,.38.08.57C13.12,12.38,0,44.62,0,44.62,19.61,25.17,56.63,15.71,82.8,13c2.93,25.62,5.47,54.62,8.63,85.94a1.53,1.53,0,0,0-.57.24,1.63,1.63,0,0,0-1-.65l-1.27-.27a1.63,1.63,0,0,0-1.14,3,1.62,1.62,0,0,0-1.58,1.38,1.64,1.64,0,0,0,.61,1.52A1.5,1.5,0,0,0,86,105a1.54,1.54,0,0,0,.8,1.71,1.29,1.29,0,0,0,.51,2.41l1,.09A1.32,1.32,0,0,0,89,109l2.45.22a1.26,1.26,0,0,0,.85.44h.2c8.27,81.94,14.14,149,10.76,169.11,1.32,3.58,13.59,1,13.25,0-5.61-15.85-10.3-73.64-20-169.5l4.91.09c4.77.15,13.38,2.29,18.59,3.7-.16,2.93-.2,5.87-.35,8.8-.18,3.33-1,6.43-1.39,9.73a91.42,91.42,0,0,0-.64,10.2,58.75,58.75,0,0,0,.61,11.17c.32,1.88.79,4.48,2.4,5.74,2.75,2.18,4.79-2,5.53-4.08,1-2.87,1.46-6.82,4-8.82,1.36-1.06,2.79-1.38,3.8-2.82,1.47-2.12,4-2.82,5.92-4.41a23.25,23.25,0,0,1,4.3-3.33c1.88-1,1.87-1.59,3.55-2.9,2.68-2.08,2.33-3.11,2.3-3.54,0-.85,1.71-1.78,2.58-2.67a21.35,21.35,0,0,0,3.07-3.91c-1.95-.72-2.69-4.69-3.62-6.45,1.6.74,2.94,3.68,3.42,5.18.69-3.26-.91-7.48-1.12-8.77a13.86,13.86,0,0,1,2,11.7c-.33,3.36-1.23,6.58-.2,10,0,.12.07.23.1.35,4.74,7.9,19.13,13.21,33,15.91-14.46.6-28.92-4.84-33.27-11.7a6.91,6.91,0,0,0-1.42,4.34c-.15,3.23.21,10.48,0,16.71.65,8,1.92,16.88,4.77,23.79a70.8,70.8,0,0,1-6.24-14.19c-3.8,10.23-5.37,26.75-6.44,37.5-.33,3.3-1.15,8.06-1.08,12,1,4,4.8,9.59,16.45,19.55-6.45-2.93-11.56-5.34-15.07-7.86a7.65,7.65,0,0,0-.9,1.5c-1.9,4.27-.72,8.92-1.19,13.56a53.84,53.84,0,0,1-3.14,13c-1.45,4.13-6.78,10.19-5.47,14.5-13.43,3.67-17,6.13-15.13,7.78a19.39,19.39,0,0,0,2.57,1.14,45.58,45.58,0,0,0,7,1.16c26.19-.28,59.58-48,70.66-81.47-5.84,23.87-26.19,72.83-58.33,82.24l.62,0c14.31-3.3,62.12-19.15,72.88-37.18a18,18,0,0,0,1.14-5.95c-.15-4.73-1.51-9.22-2.83-13.69-5.73,8.3-16.67,17.17-24.67,21.88,17.09-14.85,21.65-27.25,21.45-35.68-1.22-4.31-3.91-15.61-5.1-22.1-6.64,4.8-19.89,6.7-28.12,6.88,22.54-3.88,27.24-10.66,28.67-16.15,1.59-12.21-4.59-29.62-3.58-38.71,1.15-10.32.15-17,1.29-21.07s6.88,12,7.45,17.77c.49,4.87,1,10.56,2.87,15.33,5.12,5.21,15.54,7.79,23.79,10.54-9.28-1.75-18.69-3.93-23.56-6.31-1.48,5.55,2.06,18.84,2.06,18.84a20.17,20.17,0,0,0,6,.59l0,.06a1.58,1.58,0,0,0-.81.94l-.2.61a1.58,1.58,0,0,0,.74,1.86s0,.06,0,.09l.2,3.55a1.06,1.06,0,0,0,2.12-.12l-.21-3.55a.86.86,0,0,0-.09-.35,1.53,1.53,0,0,0,.28-.52l.2-.61a1.52,1.52,0,0,0,0-.76l.68-1.35.15,0,0,.4a1.3,1.3,0,0,0,.57,1.18,1.13,1.13,0,0,0,0,.18l0,1.79a1.26,1.26,0,0,0-.32.7l-.05.49a1.23,1.23,0,0,0,.28.92l-.4,1.5a1.24,1.24,0,0,0-.48.55l-.2.45a1.27,1.27,0,0,0-.06.79L224.58,190c-.16.31.06.74.5,1a.8.8,0,0,0,1.09-.15l1.3-2.51a1.17,1.17,0,0,0,.72-.66l.2-.45a1.24,1.24,0,0,0-.1-1.17l.46-1.72a1.22,1.22,0,0,0,.43-.8l0-.49a1.2,1.2,0,0,0-.34-1l0-1.81a.82.82,0,0,0-.07-.31,1.31,1.31,0,0,0,.38-.81v-.16l.87,0a1.33,1.33,0,0,0,.16.34l-.14.31a1.24,1.24,0,0,0,.41,1.49v1a1.13,1.13,0,0,0-.12.21l-.2.46a1.24,1.24,0,0,0,.18,1.27l-.4,1.32a1.23,1.23,0,0,0-.89.71l-.2.45a1.25,1.25,0,0,0,.06,1.1l-1.27,2.24c-.17.31,0,.75.47,1a.81.81,0,0,0,1.09-.11l1.23-2.17a1.31,1.31,0,0,0,.11.12.81.81,0,0,0,1.1.06l1.94-2.48.23-.1.08.09c.34.26.76.28.94.05l1.4-1.78a1.05,1.05,0,0,0,.61-.56l.17-.39a.87.87,0,0,0,.08-.38l1.06-2.22a.73.73,0,0,0,.28-.32l.14-.33a.83.83,0,0,0-.08-.79l.29-1.72a.75.75,0,0,0-.08-.47A1.3,1.3,0,0,0,238.92,176ZM165.25,50.11c.48-5.94,4.65-17.48,17.8-19.25,3.55-.48.32,11.87-.32,13.63-1.12-3.2-7.86-1.92-13.31,4.81,2.57-6.09,8.66-9.14,9.78-9.62-4.17.8-7,1.28-9,4.33,3.21-5.45,9.14-5.93,10.74-7.38s1.77-4.17,0-3.36S167,39.84,165.25,50.11Zm.48,15.07c.65-5,5.15-17.16,15.22-16.79-6.93,2-11,8.06-12.65,17.11-.53,2.94,4.65,10.43,12.77,17.38C174.66,79.45,165.09,70.21,165.73,65.18ZM189.49,53A19.31,19.31,0,0,1,191,55.1a20,20,0,0,0,.78,3.6c.08-.48.2-1,.34-1.56.19.39.37.78.55,1.18a2.46,2.46,0,0,0,0,.26c-.09,1.56.89,2.7.89,3.44,0,1.94-2.16,3.15-5.42,3.77.22,1.82.34,3.16.34,3.66A2.65,2.65,0,0,1,188,71l0,0a4.87,4.87,0,0,0,0-1.6c.06-2.25-1-2.64-.35-3.35-1,.32-.4,1.55-.83,1.78s-.37,0-.59-.62c.28.92-.53.84-.67.86s-.17-.71-.45-1.14c.54,1.72-.15,1-.66,1.33s-.09-.21-.33-1a1.07,1.07,0,0,1-1,1.22c-.43,0,0-.79-.24-2,.09.86-.15,2.07-.71,2.05s-.33-1-.54-2.35c-.19,1.2-.09,2.14-.43,2.31l-.37-.06a2.57,2.57,0,0,1-.45-2c-.24,1,.06,1.76-.11,1.93h-.33a1,1,0,0,1-.81-1.18c-.25.75.16,1.27-.34,1s-1.19.39-.65-1.33c-.28.43-.3,1.16-.45,1.14s-.95.06-.67-.86c-.23.58-.17.84-.6.62s.17-1.46-.82-1.78c.67.71-.41,1.1-.36,3.35a5.78,5.78,0,0,0-.05,1.57l0,.07a2.64,2.64,0,0,1-.45-1.51c0-.5.12-1.84.33-3.66-2.34-.45-4.11-1.2-4.92-2.3a25.67,25.67,0,0,1,1.85-4.11c-.28,1.77.84,2.5,3.49,3.12a4.42,4.42,0,0,1-3.47-3.16c.31-.56.64-1.12,1-1.66,0,.13,0,.26,0,.39,1.12,1.45,1.5,3,3.65,3.1.88,0,3.52-1.16,3.52-3.1,0,0-.57.39-2.58-.32a1.09,1.09,0,0,1,0,.26,1.22,1.22,0,1,1-2.43,0,.76.76,0,0,0,.45.15.64.64,0,0,0,.68-.6.55.55,0,0,0-.26-.46l-.19-.09a.29.29,0,0,0-.1,0h0c-.52-.26-1.11-.57-1.75-.94.5-.75,1-1.44,1.47-2,1.62,1.14,3.09,2.57,5,2.45-1.63-.82-3.13-2.13-4.58-2.95.31-.38.6-.72.86-1,2.16-2.27,3.61-.5,7.41-.5,1.94,0,4.17-.46,5.24.76-2.12.21-4.23,2.48-6.63,3.68C185.24,56.61,187,53.91,189.49,53Zm.9,19.23c-1.21,1.15-2.63,2.48-4,3.79a10.33,10.33,0,0,0-2.07,1.33c-.8.8-1.47,1.59-2.2,1.16a1.35,1.35,0,0,0-1.08,0c-.73.43-1.4-.36-2.19-1.16a17.38,17.38,0,0,0-5.58-2.75l-.68-1.15c.15-1.85,1.65-5.49.09-7.14s2-.74,1.53,3.11c0,.46-.27,1,0,1.46a14.78,14.78,0,0,1,1,1.34,4.72,4.72,0,0,1,.19.67,2.87,2.87,0,0,0,.84,1.35,4.8,4.8,0,0,1-.65-1.42,3,3,0,0,1-.09-.72c0-.12,0-.44.08-.53.2.14.44.17.64.32.35.26.35.85.42,1.25a4,4,0,0,0,.56,1.54,3.17,3.17,0,0,1-.12-.44,8,8,0,0,1-.23-1.53.87.87,0,0,1,.11-.55c.14-.18.32-.12.52-.08s.4.16.45.5c.08.6.07,1.22.09,1.83a2.64,2.64,0,0,0,.18,1.12,16.87,16.87,0,0,1,.1-2.35c0-.49.24-1,.75-.54.14-.42.28.13.29.27q.07.7.12,1.41a5.75,5.75,0,0,0,.24,1.29,2.28,2.28,0,0,0,.51,1,3.63,3.63,0,0,1-.06-.41c0-.2-.07-.41-.11-.62-.07-.41-.12-.81-.16-1.22a8.31,8.31,0,0,1-.12-1.32c0-.23.14-.53.4-.58s.42.44.44.71c.05.54,0,1.08.07,1.62a5.75,5.75,0,0,0,.22-1.55c0-.41-.07-.72.45-.72.39,1.28,0,2.8,0,4.11a6.6,6.6,0,0,0,.31-3.18c0-.3-.1-.61.13-.86s.57,0,.63.31a8.27,8.27,0,0,1-.14,2.22,6.73,6.73,0,0,1,.27-.87,3.18,3.18,0,0,0,.09-.87,4.64,4.64,0,0,1,.11-.65c0-.22,0-.44.21-.59s.47,0,.54.28a4.75,4.75,0,0,1,0,1.64,5.45,5.45,0,0,1-.22,1.39,5.21,5.21,0,0,0,.61-1.79c0-.36-.1-.87,0-1.2a.63.63,0,0,1,.68-.33c.4.1.29.66.23,1s-.21.88-.25,1.33a2.55,2.55,0,0,0,.45-1,5.55,5.55,0,0,1,.19-1.08c.09-.21.32-.49.54-.26s0,1.4-.16,1.77a6,6,0,0,1-.67,1.62,4.13,4.13,0,0,0,1.14-2.76c0-.36-.06-.55.3-.73a1.67,1.67,0,0,1,.79-.3,4.8,4.8,0,0,1-.58,2.95,5.38,5.38,0,0,0,.68-1.55,3.15,3.15,0,0,1,.19-.86,1.56,1.56,0,0,1,.74-.54c.83-.4.75-1.56.66-2.3-.42-3.85,3.05-4.72,1.53-3.11C189.24,67.6,190,70.25,190.39,72.19ZM175.8,68.88c0,.1,0,.19,0,.26s0,.17.13.24a1.54,1.54,0,0,0,.31.05,3,3,0,0,1-.28-1c0-.31.1-.53.45-.49.54.07.48.52.48,1a1.87,1.87,0,0,1-.11.66,2.32,2.32,0,0,0,.38.06c-.08-.3-.45-1.22-.08-1.4a.59.59,0,0,1,.57.12c.16.15.11.38.08.58a6.71,6.71,0,0,1-.13.76.59.59,0,0,1,.26.1,5.56,5.56,0,0,1,0-.71c0-.26-.09-.53.23-.57a3.55,3.55,0,0,1,.73.08c0,.43-.11.88-.07,1.3l.35.08c-.12-.37-.39-1.19.13-1.38s.93.07.9.58a3.1,3.1,0,0,1-.18.8,1,1,0,0,1,.34,0c-.05,0,0-.5-.05-.58,0-.25,0-.5,0-.75.25-.09.82-.06.9.23a3.41,3.41,0,0,1,0,1.15,1.27,1.27,0,0,1,.39,0,4.45,4.45,0,0,0-.12-.73,2.89,2.89,0,0,1,0-.59s.71-.07.76-.08c.71-.1.18,1.06.21,1.39,0,0,.26,0,.27,0-.13-.44,0-1.21.52-1.38s.62,0,.62.35a1.66,1.66,0,0,1-.2,1.07,1.87,1.87,0,0,0,.35,0c.16-.15,0-.58.05-.77a.85.85,0,0,1,.42-.81c.48-.24.68.32.73.71a2.24,2.24,0,0,1-.1.63h.25a6,6,0,0,0,0-1.4,1.23,1.23,0,0,1,.52-.2c.24,0,.2.18.2.38a4.09,4.09,0,0,1,0,1.16,1.88,1.88,0,0,0,.24-.76c0-.22-.07-.53,0-.74a.5.5,0,0,1,.54-.25c.23.09.21.46.21.67a3.65,3.65,0,0,1-.08.81.4.4,0,0,0,.44-.27,2,2,0,0,0-.06-.77,8.37,8.37,0,0,0-.18-1,6.38,6.38,0,0,1,.43,1.43,3.82,3.82,0,0,1-.09,2,1,1,0,0,1-.14.37,1.25,1.25,0,0,0,.1-.85,7,7,0,0,1,0-.92c-.26.09-.53.25-.79.34a.74.74,0,0,1,.66.35c.19.43-.23,1.23-.76,1s-.41-1-.42-1.36c-.12,0-.14.89-.17,1.08s-.36.74-.68.38a1.35,1.35,0,0,1-.11-1c.07-.34.41-.33.69-.49a1.28,1.28,0,0,0-.48.09,4.38,4.38,0,0,1-.51,0,2.35,2.35,0,0,0-1,.32c.2,0,.42,0,.62,0s.38-.17.57-.13a3.16,3.16,0,0,1-.2.9c0,.23,0,.46-.26.6a2.29,2.29,0,0,1-1,0c0-.31-.13-1.32.23-1.47a2,2,0,0,1-.64.06,5.34,5.34,0,0,0-.71.07c.22,0,.65,0,.83.1.36.25,0,.89-.12,1.16s-.36.3-.65.19a7.12,7.12,0,0,0-.12-1.23c-.11.15-.08.47-.1.66s-.11.44-.17.67a4.17,4.17,0,0,1-.5,0c-.11,0-.31-1.55.09-1.65.17-.05.36.06.52-.05a3.53,3.53,0,0,0-.8,0,2.34,2.34,0,0,0-.64-.08.81.81,0,0,1,.47.34,3.3,3.3,0,0,1-.1,1c0,.11,0,.31-.11.39s-.32.09-.31.1c-.1-.28-.58-1.56-.12-1.68-.33-.1-.71-.06-1.05-.16.68.11.7.62.66,1.2,0,.33,0,.82-.46.76s-.38-.47-.42-.71a5.33,5.33,0,0,1-.13-1.11.53.53,0,0,1,.12,0,1.37,1.37,0,0,0-.93-.13c.13,0,.48.21.55.31a2,2,0,0,1,.26.86,4,4,0,0,1,0,.69c-.35,0-.79,0-1-.37a1.82,1.82,0,0,1-.11-1.57,6.32,6.32,0,0,1-.93-.24c.43.28.63.36.68.88a6.45,6.45,0,0,1,0,.88c-.26,0-.48-.08-.74-.06,0-.11-.35-1.63-.19-1.62a.72.72,0,0,0-.29,0c-.06.21-.14,1.65-.67,1.23a2.23,2.23,0,0,1,0-1.55c-.45.23-.23,1-.2,1.39a4,4,0,0,1-.39-1.43,2.46,2.46,0,0,1,.34-1.8C175.61,68,175.72,68.48,175.8,68.88Zm18.74,3.3c-2.89,2.57-11.65,11.12-13,14.87-.86-6.85,11.43-14.76,13-18.29S195.93,63.31,193,57s-5.45-8.87-13.79-9.51c12.3-1.39,14.54,7.69,17.21,13.58S197.42,69.62,194.54,72.18Zm-112-59.61c-.95-1-.77-3.14-1.86-3.89-1.28-.87-3.21.2-4.54.18-.68-2.13-5.74-.33-7.4-.1C65.9,9.15,62.85,9.4,60,10A26.48,26.48,0,0,0,56,11.08c.18.07.49.36.7.43-1.06.88-2.78,1-4.08,1.3A51.44,51.44,0,0,0,46,15.11c-2.06.86-4.11,1.6-6.1,2.61-1.14.58-3.46,2.11-4.74,1.92,0-.34.37-1.94.77-2-3.35.83-6.51,3.59-9.53,5.19C25.08,23.5,23.11,24,22,25c-.81.72-.93,1.65-1.87,2.29-2.75,1.89-5.45,3.79-8.15,5.72-2.21,1.58-4.86,2.7-6.75,4.76.61-.66,1.27-1.28,1.91-1.91A83.68,83.68,0,0,1,25.4,22.21,127.14,127.14,0,0,1,46.07,13,174.07,174.07,0,0,1,65.76,7.68c3.43-.76,6.9-1.22,10.38-1.64,1.49-.19,5.54.39,6.4-1.35.22-.44-.25-1.3-.32-1.77s-.33-1.57.49-1.71c1-.16,1.16,2.84,2.15,3.33s3.07-.17,4.26-.11c.17,0-1.05,1.05-1.05,1.06-.31.46-.29,1.33-.82,1.54-.86.33-1.27.63-1.78-.34a8.74,8.74,0,0,1-2.62.14C82.77,8.39,83.2,11.26,82.49,12.57Zm7.62,89,.64.13a1.64,1.64,0,0,0,1,.37c0,.17,0,.35,0,.53l-1.52-.23a1.58,1.58,0,0,0-.59-.71A1.84,1.84,0,0,0,90.11,101.6Zm-.54,5.72a1.27,1.27,0,0,0-.18-.27l2,.43Zm.6-2.27a1.81,1.81,0,0,0-.26-.47l2.12.32.06.57Zm2.08-6.78C90.11,59.14,84,15.73,83.7,13l1.08-.29s4.27,38.89,4.8,45.63,1.92,23,2.89,29.61,1.39,10.26,1.39,10.26S93.54,98,92.25,98.27Zm15,146.53c-1.29,2.73-1.77,11.23-.65,13.63.32,5.45.65,13.95.65,13.95s2.72,5,5.13,6.26c1.7.91-5.46.48-7.54-1,1-10.43,0-51.32-1.28-62.07C105.77,230.37,107.38,242.07,107.22,244.8ZM96.37,107.44c0-.27-.05-.54-.08-.8l2.81.85Zm.76-2.4a1.13,1.13,0,0,0,.19-.48.86.86,0,0,0,0-.16l2.86,1.57Zm.4-2.25a1.12,1.12,0,0,0,.43-.66,1.32,1.32,0,0,0,0-.28l2.92,2.8Zm24.65,4c0,.09.08.21.13.34l-.73-.06C121.68,106.4,121.89,106.21,122.18,106.82Zm.56,2c.07.34.15.71.23,1.11l-1.43-.21c0-.37,0-.72,0-1ZM103.62,107a4.85,4.85,0,0,0,.22-.55l16.52,2.06c0,.35,0,.69-.07,1Zm20.8,19.82c-.74,5.77-2,31.32-3.84,27.69s-2.25-13.26-.75-18.82c1.44-5.34,2.77-17.49,2.21-22l1.66.47C124.35,118.46,124.83,123.66,124.42,126.82Zm21.49-34.64c-.54,1.07,1.17,12.08-.11,11.54s-3.1-6.3-3.21-4.49.32,12.51,5.67,19.89c-3.85-4.17-9.75-11.91-9.3-14.33,2.67-14.22,10.43-26.7,9.94-24.69-1,4,1.75,14.36.57,13.08s-1.75-5.07-1.85-2.29,2.24,13.69,4.17,17.54C148.26,102.76,146.44,91.11,145.91,92.18Zm11.31,38.73c-.39-5.35,3.17-12.87.6-20.79,4.15,5.34,4.75,18,19,24-7.92-1.79-15.44-8.32-16.43-9.11s-.4,3.36,2,5.34-1.59.8-2.77,0,.79,8.12,22.17,14.06C172.26,143,157.62,136.25,157.22,130.91ZM149.94,238.5c1.56,5.8,3.8,17.08,9.6,23-4.58-2.57-10.72-14.52-11.16-16,.22,8.49-2.35,22.33.33,26.13-3.46-3.91-3.57-14.85-3.35-16.19-3.23,6.81-9.26,17.42-2.23,21-6.14,2.9-15.74,2.57-16.74,1.9a18.22,18.22,0,0,0,10.71-4.91c-.22-3.46,5.36-12.51,6.81-17.2s2.79-9.27,2.46-11.72,1.34-11.28,1.34-11.28c2.68,2.46,13.06,10.05,15.85,10.83C158,243,151.17,239.61,149.94,238.5Zm2.69-45.15c-.82,7.38,2.26,28.73,15.6,45-9.65-9-17-20.94-17.86-29.15a71,71,0,0,0-.82,11.7s-2.87-25.66,3.7-43.93c1,5.34,4.92,12.73,12.11,17.86-5.34-2.26-9.65-5.54-11.7-8.41,2.46,7.8,6.77,26.27,19.49,39.41C163.71,218.39,152.84,196.22,152.63,193.35Zm7.49-41.51c-2.58-1.65,11.33,18.81,17.1,24.37-3.63-2.14-12.61-9.62-16.67-14.75-3.86,2.43,12.4,24.38,19,29.72-10.47-4.92-19.66-20.74-22-24.38s-1.67-27.62.21-23.3c2.14,4.91,13.9,13.47,24.37,16C178.51,160.18,171.88,159.32,160.12,151.84Zm53.37-68.7c2.69,3.69,3.36,7.16,4.48,13.2s2.23,15,5.37,18.46,3.57,6.27,3.24,7.83-2.35,8.62-2.35,8.62,1.45-12.09.34-12.09-2.13,4-4.37,5.6c1.57-3.58,1.68-5.93.56-10.18s-.33.78-3.58,1.9c.79-3.58,0-22.27-.67-18.91a7.78,7.78,0,0,1-2.79,4.92c1.34-2.68,2.9-10.07.56-13.42S213.49,83.14,213.49,83.14Zm3.71,71.05c-3.21-3.64-2.57-10.27-3.85-18a35.34,35.34,0,0,0-6.84-16c7.48,3.85,9.22,26.29,9.83,29.51.86,4.49,5.13,7.48,5.13,7.48S220.4,157.82,217.2,154.19Zm14,2.74c3.31-5-1.76-24.67-.45-22.39C237,145.55,234.28,154,231.16,156.93Zm-14,9.54c-.45-.55,1.12,11,.85,9.69-.69-3.36-2.46-12.14-1.67-15.06a16.17,16.17,0,0,0,7.18,2.05,32.33,32.33,0,0,1-6.38.46c-1.25-.17,5.81,6.8,10.41,8.08C219.29,170.86,217.49,166.91,217.13,166.47Zm17,14.16a1.14,1.14,0,0,0-.36.47l-.2.45a1.21,1.21,0,0,0,0,1l-.38.79a1.24,1.24,0,0,0-.9.71l-.2.46a1.23,1.23,0,0,0-.07.73l-.53.67.57-1.85a1.16,1.16,0,0,0,.32-.43l.2-.46a1.21,1.21,0,0,0-.33-1.42l0-1.18a.43.43,0,0,0,0-.07l.2-.45a1.24,1.24,0,0,0,0-1,1.3,1.3,0,0,0,.11-.65l1.33-.4a1.21,1.21,0,0,0,.41,1.21Zm2.86-1.38a.65.65,0,0,0-.16.22l-.15.33a.84.84,0,0,0,0,.74L236,182a1.22,1.22,0,0,0-.15-1.07l.35-2.07s0,0,0,0l.2-.46a1.2,1.2,0,0,0,0-1,.85.85,0,0,0,0-.16l.16,0a1.32,1.32,0,0,0,.65.52ZM229.8,280.07c-13.81.56-42.49,4.47-56.29,3.87-2.7-.12-14.39.08-25.76-.26,37.74-5.43,60-16.1,72.27-24.46.37,1.56.78,3.09,1.12,4.55C227.43,271.82,243.28,279.52,229.8,280.07ZM180.7,60.34a14.49,14.49,0,0,0-1.33,3.4,14.92,14.92,0,0,1,1.08-3.65,12.68,12.68,0,0,0,1.07-1.78A3.13,3.13,0,0,1,180.7,60.34Zm2.47,3.16c.77,3-.52,1.41-1.52,1.41h-.17c-1,0-2.29,1.56-1.52-1.41.38-1.47,1.11-3,1.52-3l.07,0h0s0,0,.07,0C182.07,60.53,182.79,62,183.17,63.5ZM177,57.84a.38.38,0,0,1-.76,0,.38.38,0,0,1,.76,0Zm-.2,8.68c0-.67.12-1.25-1.45-1.25a6.71,6.71,0,0,1-4.54-1.7,8.35,8.35,0,0,0,5.37,1C178.21,64.32,177.26,65.15,176.76,66.52Zm15.6-2.95a6.7,6.7,0,0,1-4.53,1.7c-1.58,0-1.41.58-1.45,1.25-.5-1.37-1.46-2.2.62-1.91A8.34,8.34,0,0,0,192.36,63.57Zm-9.67-3.48a14.8,14.8,0,0,1,1.07,3.65,14.79,14.79,0,0,0-1.32-3.4,3.1,3.1,0,0,1-.83-2A13.21,13.21,0,0,0,182.69,60.09Zm8.54-.79c.33,1.83-.79,2.57-3.49,3.2A4.41,4.41,0,0,0,191.23,59.3Zm-8.11-1.23s.75.5,3.51-.7a.58.58,0,0,1,0,.19.65.65,0,0,1-.69.6.68.68,0,0,1-.44-.16,1.22,1.22,0,1,0,1.89-1c.62-.3,1.31-.66,2.1-1.12,2.19-1.33.76.25.76,2.19-1.13,1.45-1.5,3-3.66,3.1C185.76,61.21,183.12,60,183.12,58.07Zm3.52-.23a.38.38,0,0,1,.75,0,.38.38,0,1,1-.75,0Z"/></g></g></svg>