<svg xmlns="http://www.w3.org/2000/svg" width="180.005" height="170" viewBox="0 0 180.005 170"><defs><style>.a,.d{fill:#a883b9;}.a{opacity:0.19;}.b{fill:#471f5a;}.b,.c{stroke-miterlimit:10;}.c,.g{fill:none;}.c{stroke:#a883b9;stroke-width:12px;}.e,.f{stroke:none;}.f{fill:#a883b9;}</style></defs><g transform="translate(-463.073 -432)"><path class="a" d="M2.149,61.322l44.8,40.093a11.983,11.983,0,0,0,12.942,1.734L161.657,54.774c7.053-3.352,7.891-12.1,1.582-16.479L111.045,2.066a12.076,12.076,0,0,0-12.29-.724L3.64,51.009C-.515,53.178-1.251,58.278,2.149,61.322Z" transform="matrix(0.999, 0.035, -0.035, 0.999, 475.68, 491.917)"/><g transform="translate(463.073 432)"><g class="b" transform="translate(-463.073 -432)"><path class="e" d="M 518.9532470703125 598.4528198242188 C 515.5827026367188 598.4530029296875 512.7723388671875 597.4075927734375 510.6001892089844 595.3455810546875 C 504.3975219726562 589.4570922851562 484.160400390625 568.9886474609375 483.9567260742188 568.7825317382812 L 483.9483642578125 568.7741088867188 L 483.9399108886719 568.7657470703125 L 467.2805786132812 552.3080444335938 C 465.4562683105469 550.1588745117188 464.7581787109375 548.0549926757812 465.2056884765625 546.0536499023438 C 465.7989196777344 543.4005126953125 468.3463134765625 541.189697265625 470.6077575683594 540.1756591796875 L 470.6376953125 540.1622314453125 C 490.0691223144531 531.4461669921875 499.3999328613281 525.442626953125 502.4874877929688 523.4531860351562 C 502.7555847167969 523.2901000976562 503.4797973632812 522.854736328125 503.8106689453125 522.854736328125 C 503.8935546875 522.854736328125 504.0466003417969 523.0068969726562 504.091552734375 523.0535278320312 C 505.4665832519531 524.4822998046875 507.7208862304688 524.69580078125 508.9421691894531 524.69580078125 C 509.8260192871094 524.69580078125 512.047119140625 524.5736083984375 513.5789184570312 523.4419555664062 C 514.98095703125 522.4061889648438 515.7587280273438 521.1912841796875 515.8907470703125 519.8311157226562 C 516.0205688476562 518.4935913085938 515.5099487304688 517.1853637695312 514.3731689453125 515.94287109375 C 514.2669067382812 515.8267211914062 514.1863403320312 515.7300415039062 514.1256103515625 515.6514892578125 C 514.4597778320312 515.3582763671875 515.02880859375 514.95947265625 515.2815551757812 514.7823486328125 C 517.4102783203125 513.2919921875 531.7338256835938 502.466796875 537.249755859375 496.510986328125 C 537.6688232421875 496.0583801269531 538.1605224609375 495.5397644042969 538.6810913085938 494.9906921386719 C 545.0092163085938 488.3157348632812 558.1749877929688 474.4284973144531 562.536865234375 452.3985290527344 C 563.0318603515625 450.1392822265625 563.3109741210938 446.9567260742188 563.3028564453125 443.6614990234375 C 563.2951049804688 440.4851684570312 563.031494140625 437.7171630859375 562.5786743164062 436.0472717285156 C 562.5638427734375 435.8133850097656 562.8067016601562 435.0110168457031 564.104248046875 434.1484375 C 564.3010864257812 434.0176086425781 564.4339599609375 433.9999389648438 564.5379638671875 433.9999389648438 C 564.74169921875 433.9999389648438 565.2030029296875 434.0882263183594 566.0034790039062 434.6795349121094 C 566.6624145507812 435.1663208007812 567.3939819335938 435.8705139160156 568.3056640625 436.8956909179688 C 570.51513671875 439.3799743652344 613.2971801757812 481.8185119628906 615.1173095703125 483.6239013671875 C 616.8792724609375 485.3797302246094 617.770751953125 486.4050903320312 618.3869018554688 487.8309631347656 C 619.06884765625 489.4091186523438 619.4336547851562 491.5633239746094 619.64599609375 495.2665100097656 C 619.8211059570312 498.3196105957031 619.8433837890625 503.1405639648438 618.955078125 508.7691650390625 C 618.0737915039062 514.3533935546875 616.4938354492188 519.5101318359375 614.2592163085938 524.0962524414062 C 610.1548461914062 532.519775390625 602.6611328125 544.9323120117188 590.26953125 556.2295532226562 C 582.3074951171875 563.4881591796875 577.2962646484375 567.4054565429688 575.017822265625 569.0944213867188 C 575.0098876953125 569.100341796875 574.9850463867188 569.1187133789062 574.9439086914062 569.1187133789062 C 574.9098510742188 569.1187133789062 574.8798217773438 569.1071166992188 574.8545532226562 569.084228515625 L 574.2913208007812 568.5723266601562 C 572.7431030273438 567.168701171875 570.74072265625 566.396728515625 568.6510620117188 566.396728515625 C 566.8002319335938 566.396728515625 564.9754028320312 567.0205078125 563.5127563476562 568.1531372070312 L 563.5170288085938 568.1498413085938 L 563.1780395507812 568.410888671875 L 563.1754760742188 568.4127807617188 L 563.1729736328125 568.4147338867188 C 562.196044921875 569.1719970703125 561.6146240234375 570.3138427734375 561.5778198242188 571.5475463867188 C 561.541015625 572.7808227539062 562.0530395507812 573.954833984375 562.9826049804688 574.7685546875 L 564.5814819335938 576.1693115234375 C 564.5982055664062 576.1839599609375 564.6275024414062 576.2095947265625 564.6234130859375 576.2670288085938 C 564.6192016601562 576.3253784179688 564.5856323242188 576.34716796875 564.567626953125 576.3588256835938 C 561.7193603515625 578.202880859375 557.4186401367188 580.9378662109375 553.1116333007812 583.490478515625 C 546.4033813476562 587.4671020507812 532.8273315429688 594.0552978515625 528.1622924804688 596.25830078125 C 526.764892578125 596.9179077148438 523.069580078125 598.4524536132812 518.9532470703125 598.4528198242188 Z"/><path class="f" d="M 564.7116088867188 436.2091064453125 C 564.700927734375 436.2196044921875 564.6907958984375 436.2297973632812 564.68115234375 436.2396240234375 C 565.2278442382812 438.799560546875 565.29931640625 442.2086181640625 565.3028564453125 443.6565551757812 C 565.3078002929688 445.6727905273438 565.2090454101562 449.5352783203125 564.4945068359375 452.8082885742188 C 563.4511108398438 458.0698852539062 561.8333740234375 463.25439453125 559.6861572265625 468.218017578125 C 557.8614501953125 472.4362182617188 555.60888671875 476.5977783203125 552.9911499023438 480.5870971679688 C 548.266845703125 487.7865600585938 543.3716430664062 492.9500732421875 540.13232421875 496.3668212890625 C 539.5935668945312 496.9351196289062 539.1282958984375 497.4259033203125 538.7171630859375 497.8699340820312 C 533.1815185546875 503.8471069335938 519.9569091796875 513.843505859375 516.9408569335938 516.0509643554688 C 517.8577270507812 517.5960083007812 517.9795532226562 519.0125122070312 517.88134765625 520.0243530273438 C 517.7513427734375 521.36376953125 517.1055908203125 523.3231201171875 514.767333984375 525.050537109375 C 512.7573852539062 526.5355224609375 510.0241088867188 526.69580078125 508.9421997070312 526.69580078125 C 507.6207275390625 526.69580078125 505.3226318359375 526.479736328125 503.5043334960938 525.17724609375 C 500.3192749023438 527.2291259765625 490.888427734375 533.2706298828125 471.4559936523438 541.9871826171875 L 471.4260864257812 542.0005493164062 C 469.678466796875 542.7841796875 467.5972290039062 544.5233764648438 467.157470703125 546.4901123046875 C 467.0243530273438 547.08544921875 467.0484619140625 547.6822509765625 467.2310791015625 548.314453125 C 467.4710083007812 549.14501953125 467.9821166992188 550.0308837890625 468.7509155273438 550.9491577148438 L 485.345458984375 567.3429565429688 L 485.3623657226562 567.3596801757812 L 485.3790893554688 567.3765869140625 C 485.58251953125 567.5823974609375 505.797119140625 588.028076171875 511.9772338867188 593.8951416015625 C 513.7901611328125 595.6161499023438 516.0720825195312 596.4527587890625 518.9534301757812 596.4527587890625 C 522.6643676757812 596.4527587890625 526.0328369140625 595.0518188476562 527.3082885742188 594.4497680664062 C 531.9495239257812 592.258056640625 545.449462890625 585.7076416015625 552.0919189453125 581.7698974609375 C 555.4202270507812 579.79736328125 558.7476806640625 577.7133178710938 561.39453125 576.0218505859375 C 560.185791015625 574.8292236328125 559.5277099609375 573.1969604492188 559.5787353515625 571.4879150390625 C 559.6334228515625 569.6549072265625 560.4968872070312 567.9586181640625 561.9476928710938 566.833984375 L 561.9526977539062 566.8301391601562 L 561.9577026367188 566.8262939453125 L 562.2889404296875 566.5711669921875 C 564.1001586914062 565.1689453125 566.3595581054688 564.396728515625 568.6510620117188 564.396728515625 C 570.9736328125 564.396728515625 573.209228515625 565.1671142578125 575.0277099609375 566.5806274414062 C 577.6333618164062 564.5794677734375 582.2149658203125 560.8660888671875 588.9220581054688 554.7515869140625 C 601.0799560546875 543.6673583984375 608.4334106445312 531.4866943359375 612.4613037109375 523.22021484375 C 614.6090087890625 518.8125 616.129150390625 513.8455200195312 616.9794921875 508.4573974609375 C 617.8402099609375 503.00390625 617.8187866210938 498.3363647460938 617.6492919921875 495.3809814453125 C 617.4539794921875 491.9744262695312 617.12548828125 489.9537353515625 616.551025390625 488.6243286132812 C 616.0625 487.4939575195312 615.312255859375 486.641845703125 613.7069702148438 485.0420532226562 C 609.1317138671875 480.5038452148438 569.0234985351562 440.7122802734375 566.8112182617188 438.2247924804688 C 565.7633056640625 437.0464477539062 565.09716796875 436.47998046875 564.7116088867188 436.2091064453125 M 564.5379638671875 431.9999389648438 C 566.2879638671875 431.9999389648438 568.11083984375 433.6669921875 569.8001708984375 435.5665893554688 C 571.993408203125 438.0326538085938 616.5257568359375 482.2039794921875 616.5257568359375 482.2039794921875 C 620.0120849609375 485.6781005859375 621.1926879882812 487.3035888671875 621.6427001953125 495.1519775390625 C 622.0927734375 502.9989013671875 621.155517578125 514.5088500976562 616.05712890625 524.9722900390625 C 610.9586791992188 535.4359741210938 603.01171875 547.319091796875 591.616943359375 557.70751953125 C 583.57177734375 565.0419311523438 578.49755859375 569.0045166015625 576.2088623046875 570.7011108398438 C 575.8314819335938 570.9808349609375 575.386962890625 571.11865234375 574.94384765625 571.11865234375 C 574.4288330078125 571.11865234375 573.9157104492188 570.9324951171875 573.5115356445312 570.5662231445312 L 572.946044921875 570.0523071289062 C 571.733154296875 568.95263671875 570.194091796875 568.396728515625 568.6510620117188 568.396728515625 C 567.2734985351562 568.396728515625 565.8927001953125 568.8397216796875 564.7372436523438 569.7344360351562 L 564.3982543945312 569.9954833984375 C 563.3430786132812 570.8133544921875 563.2960205078125 572.3848876953125 564.2999267578125 573.263671875 L 565.8994140625 574.6649780273438 C 566.958984375 575.592041015625 566.8378295898438 577.2703247070312 565.6558227539062 578.036865234375 C 563.0396728515625 579.7306518554688 558.5847778320312 582.571533203125 554.13134765625 585.2109985351562 C 547.19580078125 589.3223876953125 533.2887573242188 596.0491943359375 529.0162963867188 598.0667724609375 C 526.6988525390625 599.1607055664062 522.9253540039062 600.4527587890625 518.9534301757812 600.4527587890625 C 515.6002807617188 600.4527587890625 512.1060791015625 599.5328369140625 509.2232666015625 596.7960815429688 C 502.925537109375 590.8174438476562 482.5343017578125 570.1885375976562 482.5343017578125 570.1885375976562 L 465.8145751953125 553.6710815429688 C 459.5924072265625 546.4219970703125 465.2904663085938 540.3681030273438 469.7894287109375 538.3507080078125 C 474.2869873046875 536.333251953125 489.1309814453125 529.6802368164062 501.42578125 521.758056640625 C 502.209228515625 521.281005859375 503.0115966796875 520.854736328125 503.8106689453125 520.8546752929688 C 504.3887329101562 520.8546752929688 504.965087890625 521.07763671875 505.53173828125 521.665771484375 C 506.2134399414062 522.3740844726562 507.5707397460938 522.69580078125 508.9421997070312 522.69580078125 C 510.2841796875 522.69580078125 511.6397094726562 522.3880615234375 512.3905029296875 521.8333129882812 C 513.9087524414062 520.711669921875 514.6408081054688 519.1982421875 512.8975830078125 517.29296875 C 511.154296875 515.3876342773438 512.0531005859375 514.6026611328125 514.1337280273438 513.14453125 C 516.2144165039062 511.6878051757812 530.3834228515625 500.9815673828125 535.7824096679688 495.1519775390625 C 541.1799926757812 489.322509765625 555.96875 475.3082275390625 560.578857421875 451.990234375 C 561.59130859375 447.3944702148438 561.4786987304688 439.546142578125 560.6342163085938 436.5191650390625 C 560.4105224609375 435.621826171875 560.8036499023438 433.9410400390625 562.9970092773438 432.48291015625 C 563.50048828125 432.1482543945312 564.0159912109375 431.9999389648438 564.5379638671875 431.9999389648438 Z"/></g><g class="b" transform="translate(-455.75 -398.213)"><path class="e" d="M 506.671142578125 545.9483642578125 C 504.7640686035156 545.9483642578125 502.970458984375 545.2044677734375 501.6207580566406 543.8536987304688 L 483.2330017089844 525.4461059570312 C 482.3916320800781 524.6036987304688 482.0205078125 523.4454345703125 482.2149047851562 522.268310546875 C 482.4086303710938 521.0951538085938 483.1289978027344 520.1214599609375 484.1912841796875 519.5968627929688 L 493.5827941894531 514.956787109375 C 494.5591430664062 514.4745483398438 495.6493530273438 514.2196044921875 496.7354125976562 514.2196044921875 C 498.6399536132812 514.2196044921875 500.4317016601562 514.9618530273438 501.780517578125 516.3095703125 L 520.0242309570312 534.5432739257812 C 520.8547973632812 535.3731079101562 521.2286987304688 536.5159912109375 521.05029296875 537.6791381835938 C 520.8721313476562 538.8406982421875 520.1744384765625 539.8173217773438 519.1360473632812 540.358642578125 L 509.9598083496094 545.1415405273438 C 508.9472045898438 545.6693725585938 507.81005859375 545.9483642578125 506.671142578125 545.9483642578125 Z"/><path class="f" d="M 496.7354125976562 516.2196044921875 C 495.9437255859375 516.2196044921875 495.1809692382812 516.3980712890625 494.4687194824219 516.7498779296875 L 485.0768432617188 521.39013671875 C 484.42333984375 521.7128295898438 484.2395629882812 522.2830200195312 484.1881713867188 522.5941772460938 C 484.1364135742188 522.9076538085938 484.1273193359375 523.5114135742188 484.64794921875 524.0326538085938 L 503.0355224609375 542.4400634765625 C 504.0074157714844 543.4127197265625 505.2985534667969 543.9483642578125 506.671142578125 543.9483642578125 C 507.489501953125 543.9483642578125 508.3070068359375 543.7476806640625 509.035400390625 543.3680419921875 L 518.2114868164062 538.5851440429688 C 518.8511962890625 538.251708984375 519.026123046875 537.6843872070312 519.0734252929688 537.3759155273438 C 519.120849609375 537.0665283203125 519.1239013671875 536.4708862304688 518.6104125976562 535.9578857421875 L 500.3668823242188 517.724365234375 C 499.395751953125 516.7540283203125 498.1060485839844 516.2196044921875 496.7354125976562 516.2196044921875 M 496.7354125976562 512.2196044921875 C 499.103759765625 512.2196044921875 501.4392395019531 513.1412963867188 503.1941528320312 514.894775390625 L 521.4380493164062 533.128662109375 C 524.1351318359375 535.8233032226562 523.4385986328125 540.3711547851562 520.060546875 542.1321411132812 L 510.8842163085938 546.9151000976562 C 509.55078125 547.6101684570312 508.1051940917969 547.9483642578125 506.6711730957031 547.9483642578125 C 504.3021545410156 547.9483642578125 501.9635314941406 547.0263061523438 500.2059936523438 545.2673950195312 L 481.8179931640625 526.8595581054688 C 479.0885009765625 524.126708984375 479.845703125 519.51220703125 483.3057861328125 517.8035888671875 L 492.6968994140625 513.1636962890625 C 493.9828491210938 512.528564453125 495.3648071289062 512.2196044921875 496.7354125976562 512.2196044921875 Z"/></g><g class="c" transform="translate(57.426 96.494)"><ellipse class="e" cx="4.76" cy="3.431" rx="4.76" ry="3.431"/><ellipse class="g" cx="4.76" cy="3.431" rx="1.24" ry="2.569"/></g><g class="c" transform="translate(70.773 109.229)"><ellipse class="e" cx="4.76" cy="3.431" rx="4.76" ry="3.431"/><ellipse class="g" cx="4.76" cy="3.431" rx="1.24" ry="2.569"/></g><g class="c" transform="translate(85.344 121.884)"><ellipse class="e" cx="4.76" cy="3.431" rx="4.76" ry="3.431"/><ellipse class="g" cx="4.76" cy="3.431" rx="1.24" ry="2.569"/></g><g transform="translate(76.197 46.896)"><path class="d" d="M550.788,478.452l2.83-2.382c-5.369-1.473-12.2.978-15.516,3.692-.188-.683-.284-1.524,1.338-3.886-2.57-.146-9.994,2.423-13.72,8.4,0,0,1.185.231,4.751.917,2.559-3.613,4.77-3.63,6.522-2.73a8.063,8.063,0,0,0-4.135,6.86l-1.3-2.281s-.6,11.259-.305,12.161c1.13,2.811.5,12.4.5,12.4a24.122,24.122,0,0,0,4.489-.4c2.453-.453,3.129-2.482,3.8-6.893s4.311-6,6.588-9.693.651-6.075-1.676-8.032a5.022,5.022,0,0,1,3.555,1.771c3.357,4.009.367,13.434.429,17.072s.26,9.913,9.555,12.234c-2.385-3.584-1.108-6.237.2-10.008,1.137-3.485,4.941-8.459,5.006-13.961a18.969,18.969,0,0,0-4.072-11.629C556.614,478.465,555.173,478.29,550.788,478.452Zm-16.766,23.334-.02-2.134-1.219-1.821s.627-3.369,1.25-5.273C536.51,498.078,534.022,501.786,534.022,501.786Z" transform="translate(-512.144 -460.564)"/><path class="d" d="M523.458,512.228s9.627-10.179,8.076-12.443-9.86.813-15.422,6.534c1.729-5.6,3.121-13,11.575-20.459s11.81-7.983,19.4-11.953S556.625,465,556.625,465c.319,3.95-1.194,9.831-3.067,11.294,5.226-3.365,14.1-8.413,19.96-6.208-3.8,2.736-9.637,7.422-9.681,10.8,7.847-4.073,17.643-2.387,17.882,11.206-3.857-1.59-10.667-2.308-13.767-.388-.349-3.162-5.582-11.2-10.263-9.79l2.628-2.213c-3.149-1.84-12.181-1.379-15.923,1.425,2.536-2.6,2.677-4.212-3.734-1.578s-11.1,6.232-12.625,10.168a45.533,45.533,0,0,0,6.269,1.173l-.867,12.134,1.341,3.249S527.1,512.045,523.458,512.228Z" transform="translate(-516.111 -464.995)"/><path class="d" d="M553.492,494.232s.948-5.867-.01-8.518c4.013.538,9.785,5.239,8.031,11.786A57.845,57.845,0,0,0,553.492,494.232Z" transform="translate(-500.683 -456.36)"/></g></g></g></svg>