<svg xmlns="http://www.w3.org/2000/svg" width="50" height="50" viewBox="0 0 100 100"><defs><style>.a{fill:#edeeef;}.b{fill:none;stroke:#c9cdcf;stroke-linecap:round;stroke-miterlimit:10;stroke-dasharray:2;}.c{fill:#c9cdcf;}</style></defs><g transform="translate(3397.535 -4713.394)"><circle class="a" cx="50" cy="50" r="50" transform="translate(-3397.535 4713.394)"/><circle class="a" cx="48.076" cy="48.076" r="48.076" transform="translate(-3395.756 4715.173)"/><path class="b" d="M-3301.737,4762.27a47.016,47.016,0,0,1-2.9,16.307c-.2.563-.422,1.125-.672,1.671a46.844,46.844,0,0,1-5.014,9.107c-.094.14-.2.281-.312.421a47.04,47.04,0,0,1-6.139,6.92c-.781.734-1.578,1.421-2.405,2.093-.75.593-1.515,1.187-2.3,1.718a44.668,44.668,0,0,1-4.405,2.8,46.731,46.731,0,0,1-8.388,3.64c-1.312.421-2.64.781-4,1.077a47.294,47.294,0,0,1-8.467,1.141c-.64.015-1.28.031-1.921.031-.406,0-.828,0-1.234-.016a47.952,47.952,0,0,1-8.685-1.047c-.7-.14-1.406-.312-2.093-.5a46.721,46.721,0,0,1-22.447-13.528c-1-1.078-1.937-2.2-2.827-3.374a46.592,46.592,0,0,1-9.622-28.46,46.919,46.919,0,0,1,46.908-46.909A46.922,46.922,0,0,1-3301.737,4762.27Z" transform="translate(0.973 0.974)"/><g transform="translate(-3385.383 4724.486)"><path class="c" d="M-3338.444,4749.958c.973-.359,2.184-.6,5.818,1.466-.12-3.769-4.786-14.237-13.923-18.9,0,0-.179,1.75-.733,7.029,5.563,3.26,5.877,6.475,4.786,9.137a11.725,11.725,0,0,0-10.468-5.144l3.141-2.184s-16.405.538-17.676,1.092c-3.933,2-17.931,2.3-17.931,2.3a35.07,35.07,0,0,0,1.151,6.475c.972,3.515,3.993,4.248,10.483,4.666,6.475.419,9.257,5.5,14.895,8.36,5.623,2.841,8.9.179,11.44-3.455a7.4,7.4,0,0,1-2.124,5.4c-5.383,5.384-19.44,2.229-24.7,2.781-4.472.464-11.694,1.316-15.119,10.035.853,1.121,1.75,2.2,2.707,3.23,3.246-.868,6.431.194,10.424,1.2,5.2,1.212,12.891,6.117,20.876,5.52a27.531,27.531,0,0,0,16.36-7.4c4.83-4.83,4.9-6.953,4.112-13.309,0,0,1.63,1.629,3.813,3.813C-3329.666,4764.075-3334.077,4754.444-3338.444,4749.958Zm-32.451-3.141,3.081-.3,2.5-2s4.965.479,7.806,1.136C-3365.212,4749.958-3370.9,4746.817-3370.9,4746.817Z" transform="translate(3389.409 -4711.009)"/><path class="c" d="M-3310.206,4775.782c-.206.565-.427,1.13-.68,1.679-5.565.111-12.032-1.3-14.071-3.469a88.959,88.959,0,0,1,8.68,13.045,47.41,47.41,0,0,1-6.214,6.954c-2.894-2.292-5.787-3.877-8.127-3.706a26.465,26.465,0,0,1,3.368,7.535,44.947,44.947,0,0,1-4.458,2.811,47.383,47.383,0,0,1-8.49,3.658c-1.328.423-2.672.784-4.047,1.083a15.5,15.5,0,0,0-2.4-7.362c4.807-.958,16.412-10,13.629-16.969l3.747,3.72c2.4-5.054.49-18.774-4.317-24.125,4.317,3.531,6.814,3.531,1.929-5.9-4.9-9.434-11.051-16.105-17.3-17.926a70.118,70.118,0,0,0-.949,9.732l-18.736.283-4.791,2.479s-9.9-10.972-10.656-16.5c0,0,16.886,13.358,20.158,10.674,3.257-2.67-2.577-14.943-12.095-22.667,8.823,1.884,20.349,3.03,32.934,14.959,12.569,11.9,13.818,16.954,20.933,28.021C-3317.795,4770.6-3313.131,4774.1-3310.206,4775.782Z" transform="translate(3392.045 -4720.811)"/><path class="c" d="M-3358.445,4771.151a14,14,0,0,1-2.109,6.371c-.613.015-1.226.03-1.839.03-.389,0-.792,0-1.181-.015a45.944,45.944,0,0,1-8.314-1c.718-2.527,1.091-4.292,1.091-4.292S-3362.168,4772.871-3358.445,4771.151Z" transform="translate(3399.717 -4691.87)"/></g></g></svg>